# xmcd
#
# Track frame offsets:
# 150
# 12092
# 37852
# 55607
# 68258
# 85237
# 100429
# 113740
# 128228
# 142615
# 151442
# 170094
# 186168
# 203664
# 218057
# 233855
# 251034
#
# Disc length: 3555 seconds
#
#
# Revision: 0
# Processed by: cddbd v1.5.1PL0 Copyright (c) Steve Scherf et al.
# Submitted via: FreeRIP 2.93 
#
DISCID=d90de111
DTITLE=paulo - paulo
DYEAR=1900
DGENRE=Country
TTITLE0=monarcas
TTITLE1=porca veia
TTITLE2=porca veia
TTITLE3=porca veia
TTITLE4=porca veia
TTITLE5=porca veia
TTITLE6=tche
TTITLE7=tche
TTITLE8=tche
TTITLE9=tche
TTITLE10=tche
TTITLE11=tche
TTITLE12=tche
TTITLE13=tche
TTITLE14=tche
TTITLE15=tche
TTITLE16=tche
EXTD=
EXTT0=
EXTT1=
EXTT2=
EXTT3=
EXTT4=
EXTT5=
EXTT6=
EXTT7=
EXTT8=
EXTT9=
EXTT10=
EXTT11=
EXTT12=
EXTT13=
EXTT14=
EXTT15=
EXTT16=
PLAYORDER=
